<svg xmlns="http://www.w3.org/2000/svg" viewBox="0 0 1240 700" width="1240" height="700" font-family="'Noto Sans CJK SC','PingFang SC','Microsoft YaHei',sans-serif">
<title>GSO / TSO：决定在哪里分段；Scatter-Gather：决定从哪里取数据</title><desc>算例：MTU 1500，IPv4/TCP 各 20 B，无选项、无封装；5840 B payload = 4 × 1460 B。</desc>
<defs><marker id="arr" viewBox="0 0 10 10" refX="8.5" refY="5" markerWidth="7" markerHeight="7" orient="auto-start-reverse"><path d="M0,0 L10,5 L0,10 z" fill="#5A564B"/></marker><marker id="ctrl" viewBox="0 0 10 10" refX="8.5" refY="5" markerWidth="7" markerHeight="7" orient="auto-start-reverse"><path d="M0,0 L10,5 L0,10 z" fill="#8A6A3A"/></marker></defs>
<rect x="0" y="0" width="1240" height="700" rx="0" fill="rgb(245, 244, 237)" stroke="none" stroke-width="1.3"/>
<text x="48" y="51" font-size="22" font-weight="700" fill="#2B2A26" text-anchor="start">GSO / TSO：决定在哪里分段；Scatter-Gather：决定从哪里取数据</text>
<text x="48" y="80" font-size="13" font-weight="400" fill="#6B675C" text-anchor="start">算例：MTU 1500，IPv4/TCP 各 20 B，无选项、无封装；5840 B payload = 4 × 1460 B。</text>
<text x="48" y="126" font-size="15" font-weight="700" fill="#2B2A26" text-anchor="start">A · 内核中的一个大 skb</text>
<rect x="48" y="148" width="201" height="70" rx="7" fill="#EDEAF3" stroke="#6B5B95" stroke-width="1.3"/>
<text x="148.5" y="177.0" font-size="14" font-weight="700" fill="#51416D" text-anchor="middle">GSO 元数据</text>
<text x="148.5" y="199.0" font-size="12.5" font-weight="400" fill="#51416D" text-anchor="middle">gso_size = 1460</text>
<rect x="310" y="148" width="220" height="70" rx="0" fill="#DCE9E3" stroke="#2F6B5E" stroke-width="1.3"/>
<text x="420" y="178" font-size="14" font-weight="700" fill="#2B2A26" text-anchor="middle">payload 1</text>
<text x="420" y="202" font-size="13" font-weight="400" fill="#2B2A26" text-anchor="middle">1460 B</text>
<rect x="530" y="148" width="220" height="70" rx="0" fill="#DCE9E3" stroke="#2F6B5E" stroke-width="1.3"/>
<text x="640" y="178" font-size="14" font-weight="700" fill="#2B2A26" text-anchor="middle">payload 2</text>
<text x="640" y="202" font-size="13" font-weight="400" fill="#2B2A26" text-anchor="middle">1460 B</text>
<rect x="750" y="148" width="220" height="70" rx="0" fill="#DCE9E3" stroke="#2F6B5E" stroke-width="1.3"/>
<text x="860" y="178" font-size="14" font-weight="700" fill="#2B2A26" text-anchor="middle">payload 3</text>
<text x="860" y="202" font-size="13" font-weight="400" fill="#2B2A26" text-anchor="middle">1460 B</text>
<rect x="970" y="148" width="220" height="70" rx="0" fill="#DCE9E3" stroke="#2F6B5E" stroke-width="1.3"/>
<text x="1080" y="178" font-size="14" font-weight="700" fill="#2B2A26" text-anchor="middle">payload 4</text>
<text x="1080" y="202" font-size="13" font-weight="400" fill="#2B2A26" text-anchor="middle">1460 B</text>
<path d="M 253,184 L 306,184" fill="none" stroke="#5A564B" stroke-width="1.7"/>
<rect x="48" y="249" width="556" height="265" rx="7" fill="#FBFBF6" stroke="#D8D5C8" stroke-width="1.3"/>
<text x="68" y="277" font-size="15" font-weight="700" fill="#4A473F" text-anchor="start">B · 软件分段路径</text>
<rect x="78" y="304" width="185" height="56" rx="7" fill="#EDEAF3" stroke="#6B5B95" stroke-width="1.3"/>
<text x="170.5" y="326.0" font-size="14" font-weight="700" fill="#51416D" text-anchor="middle">GSO 软件分段</text>
<text x="170.5" y="348.0" font-size="12.5" font-weight="400" fill="#51416D" text-anchor="middle">CPU 生成可发送 skb</text>
<path d="M 177,221 L 177,237 L 294,237 L 294,288 L 170,288 L 170,300" fill="none" stroke="#5A564B" stroke-width="1.7" marker-end="url(#arr)"/>
<rect x="351" y="304" width="223" height="56" rx="7" fill="#F0E0DB" stroke="#A64B3C" stroke-width="1.3"/>
<text x="462.5" y="326.0" font-size="14" font-weight="700" fill="#733428" text-anchor="middle">普通驱动 / NIC</text>
<text x="462.5" y="348.0" font-size="12.5" font-weight="400" fill="#733428" text-anchor="middle">发送已分好的 segment</text>
<path d="M 267,332 L 347,332" fill="none" stroke="#5A564B" stroke-width="1.7" marker-end="url(#arr)"/>
<rect x="79" y="410" width="32" height="45" rx="0" fill="#EDEAF3" stroke="#6B5B95" stroke-width="1.3"/>
<text x="95" y="438" font-size="12" font-weight="400" fill="#2B2A26" text-anchor="middle">头</text>
<rect x="111" y="410" width="84" height="45" rx="0" fill="#DCE9E3" stroke="#2F6B5E" stroke-width="1.3"/>
<text x="153" y="438" font-size="13" font-weight="400" fill="#2B2A26" text-anchor="middle">1460</text>
<rect x="205" y="410" width="32" height="45" rx="0" fill="#EDEAF3" stroke="#6B5B95" stroke-width="1.3"/>
<text x="221" y="438" font-size="12" font-weight="400" fill="#2B2A26" text-anchor="middle">头</text>
<rect x="237" y="410" width="84" height="45" rx="0" fill="#DCE9E3" stroke="#2F6B5E" stroke-width="1.3"/>
<text x="279" y="438" font-size="13" font-weight="400" fill="#2B2A26" text-anchor="middle">1460</text>
<rect x="331" y="410" width="32" height="45" rx="0" fill="#EDEAF3" stroke="#6B5B95" stroke-width="1.3"/>
<text x="347" y="438" font-size="12" font-weight="400" fill="#2B2A26" text-anchor="middle">头</text>
<rect x="363" y="410" width="84" height="45" rx="0" fill="#DCE9E3" stroke="#2F6B5E" stroke-width="1.3"/>
<text x="405" y="438" font-size="13" font-weight="400" fill="#2B2A26" text-anchor="middle">1460</text>
<rect x="457" y="410" width="32" height="45" rx="0" fill="#EDEAF3" stroke="#6B5B95" stroke-width="1.3"/>
<text x="473" y="438" font-size="12" font-weight="400" fill="#2B2A26" text-anchor="middle">头</text>
<rect x="489" y="410" width="84" height="45" rx="0" fill="#DCE9E3" stroke="#2F6B5E" stroke-width="1.3"/>
<text x="531" y="438" font-size="13" font-weight="400" fill="#2B2A26" text-anchor="middle">1460</text>
<path d="M 460,364 L 460,392 L 331,392 L 331,406" fill="none" stroke="#5A564B" stroke-width="1.7" marker-end="url(#arr)"/>
<text x="81" y="490" font-size="13" font-weight="400" fill="#2F6B5E" text-anchor="start">线路：4 个独立 TCP segment / IP 包</text>
<rect x="630" y="249" width="562" height="265" rx="7" fill="#FBFBF6" stroke="#D8D5C8" stroke-width="1.3"/>
<text x="650" y="277" font-size="15" font-weight="700" fill="#4A473F" text-anchor="start">C · TSO 硬件分段路径</text>
<rect x="660" y="304" width="212" height="56" rx="7" fill="#EDEAF3" stroke="#6B5B95" stroke-width="1.3"/>
<text x="766.0" y="326.0" font-size="14" font-weight="700" fill="#51416D" text-anchor="middle">大 skb + MSS + 头长</text>
<text x="766.0" y="348.0" font-size="12.5" font-weight="400" fill="#51416D" text-anchor="middle">驱动填写 offload 信息</text>
<path d="M 964,222 L 964,237 L 897,237 L 897,288 L 766,288 L 766,300" fill="none" stroke="#5A564B" stroke-width="1.7" marker-end="url(#arr)"/>
<rect x="925" y="304" width="238" height="56" rx="7" fill="#F0E0DB" stroke="#A64B3C" stroke-width="1.3"/>
<text x="1044.0" y="326.0" font-size="14" font-weight="700" fill="#733428" text-anchor="middle">支持该 TSO 的 NIC</text>
<text x="1044.0" y="348.0" font-size="12.5" font-weight="400" fill="#733428" text-anchor="middle">读取数据并完成分段</text>
<path d="M 876,332 L 921,332" fill="none" stroke="#5A564B" stroke-width="1.7" marker-end="url(#arr)"/>
<rect x="661" y="410" width="32" height="45" rx="0" fill="#EDEAF3" stroke="#6B5B95" stroke-width="1.3"/>
<text x="677" y="438" font-size="12" font-weight="400" fill="#2B2A26" text-anchor="middle">头</text>
<rect x="693" y="410" width="84" height="45" rx="0" fill="#DCE9E3" stroke="#2F6B5E" stroke-width="1.3"/>
<text x="735" y="438" font-size="13" font-weight="400" fill="#2B2A26" text-anchor="middle">1460</text>
<rect x="787" y="410" width="32" height="45" rx="0" fill="#EDEAF3" stroke="#6B5B95" stroke-width="1.3"/>
<text x="803" y="438" font-size="12" font-weight="400" fill="#2B2A26" text-anchor="middle">头</text>
<rect x="819" y="410" width="84" height="45" rx="0" fill="#DCE9E3" stroke="#2F6B5E" stroke-width="1.3"/>
<text x="861" y="438" font-size="13" font-weight="400" fill="#2B2A26" text-anchor="middle">1460</text>
<rect x="913" y="410" width="32" height="45" rx="0" fill="#EDEAF3" stroke="#6B5B95" stroke-width="1.3"/>
<text x="929" y="438" font-size="12" font-weight="400" fill="#2B2A26" text-anchor="middle">头</text>
<rect x="945" y="410" width="84" height="45" rx="0" fill="#DCE9E3" stroke="#2F6B5E" stroke-width="1.3"/>
<text x="987" y="438" font-size="13" font-weight="400" fill="#2B2A26" text-anchor="middle">1460</text>
<rect x="1039" y="410" width="32" height="45" rx="0" fill="#EDEAF3" stroke="#6B5B95" stroke-width="1.3"/>
<text x="1055" y="438" font-size="12" font-weight="400" fill="#2B2A26" text-anchor="middle">头</text>
<rect x="1071" y="410" width="84" height="45" rx="0" fill="#DCE9E3" stroke="#2F6B5E" stroke-width="1.3"/>
<text x="1113" y="438" font-size="13" font-weight="400" fill="#2B2A26" text-anchor="middle">1460</text>
<path d="M 1040,364 L 1040,392 L 915,392 L 915,406" fill="none" stroke="#5A564B" stroke-width="1.7" marker-end="url(#arr)"/>
<text x="665" y="490" font-size="13" font-weight="400" fill="#2F6B5E" text-anchor="start">线路：仍是 4 个合法分段，不是一个巨帧</text>
<text x="48" y="554" font-size="15" font-weight="700" fill="#2B2A26" text-anchor="start">D · Scatter-Gather 是另一条轴</text>
<rect x="65" y="576" width="195" height="52" rx="7" fill="#DCE9E3" stroke="#2F6B5E" stroke-width="1.3"/>
<text x="162.5" y="607.0" font-size="14" font-weight="700" fill="#24473F" text-anchor="middle">线性区：DMA 地址 A</text>
<rect x="291" y="576" width="206" height="52" rx="7" fill="#DCE9E3" stroke="#2F6B5E" stroke-width="1.3"/>
<text x="394.0" y="607.0" font-size="14" font-weight="700" fill="#24473F" text-anchor="middle">page 片段：地址 B</text>
<rect x="528" y="576" width="206" height="52" rx="7" fill="#DCE9E3" stroke="#2F6B5E" stroke-width="1.3"/>
<text x="631.0" y="607.0" font-size="14" font-weight="700" fill="#24473F" text-anchor="middle">page 片段：地址 C</text>
<path d="M 737,602 L 780,602" fill="none" stroke="#5A564B" stroke-width="1.7" marker-end="url(#arr)"/>
<rect x="790" y="576" width="385" height="52" rx="7" fill="#F1EFE8" stroke="#9B968A" stroke-width="1.3"/>
<text x="982.5" y="596.0" font-size="14" font-weight="700" fill="#4A473F" text-anchor="middle">描述符数 ≠ 线路 segment 数</text>
<text x="982.5" y="618.0" font-size="12.5" font-weight="400" fill="#4A473F" text-anchor="middle">内存分散、长度上限与分段参数各自决定</text>
<text x="48" y="684" font-size="12.5" font-weight="400" fill="#6B675C" text-anchor="start">图中省略 Ethernet 头/FCS；TCP 头长度或路径 MTU 改变时应重算。GSO/TSO 不等于 IP fragmentation，也不保证零拷贝。</text>
</svg>