<?xml version='1.0' encoding='utf-8'?>
<svg xmlns="http://www.w3.org/2000/svg" xmlns:xlink="http://www.w3.org/1999/xlink" width="1200px" height="760px" viewBox="0 0 1200 760" version="1.1"><rect x="0" y="0" width="1200" height="760" fill="rgb(245, 244, 237)" /><defs><marker id="arrow" markerWidth="10" markerHeight="10" refX="9" refY="5" orient="auto"><path d="M0 0 L10 5 L0 10 Z" fill="#3f4f5f" /></marker></defs><text fill="#1f2933" font-size="30" font-weight="700" font-family="-apple-system, BlinkMacSystemFont, 'Segoe UI', sans-serif" x="600" y="42" text-anchor="middle" dominant-baseline="middle">归并排序：先拆分，再合并两个有序区间</text><rect fill="#fbfaf5" stroke="#c5bda8" stroke-width="2" x="290" y="82" width="620" height="58" rx="10" ry="10" /><text fill="#1f2933" font-size="24" font-weight="700" font-family="Menlo, Consolas, monospace" x="600" y="111" text-anchor="middle" dominant-baseline="middle">[8, 3, 5, 1, 9, 2, 7, 4]</text><line stroke="#3f4f5f" stroke-width="2.5" marker-end="url(#arrow)" x1="510" y1="145" x2="352" y2="194" /><line stroke="#3f4f5f" stroke-width="2.5" marker-end="url(#arrow)" x1="690" y1="145" x2="848" y2="194" /><rect fill="#e8f3ff" stroke="#6c82aa" stroke-width="2" x="120" y="205" width="360" height="56" rx="10" ry="10" /><rect fill="#e8f3ff" stroke="#6c82aa" stroke-width="2" x="720" y="205" width="360" height="56" rx="10" ry="10" /><text fill="#1f2933" font-size="22" font-weight="700" font-family="Menlo, Consolas, monospace" x="300" y="233" text-anchor="middle" dominant-baseline="middle">[8, 3, 5, 1]</text><text fill="#1f2933" font-size="22" font-weight="700" font-family="Menlo, Consolas, monospace" x="900" y="233" text-anchor="middle" dominant-baseline="middle">[9, 2, 7, 4]</text><line stroke="#3f4f5f" stroke-width="2.5" marker-end="url(#arrow)" x1="245" y1="268" x2="188" y2="314" /><line stroke="#3f4f5f" stroke-width="2.5" marker-end="url(#arrow)" x1="355" y1="268" x2="412" y2="314" /><line stroke="#3f4f5f" stroke-width="2.5" marker-end="url(#arrow)" x1="845" y1="268" x2="788" y2="314" /><line stroke="#3f4f5f" stroke-width="2.5" marker-end="url(#arrow)" x1="955" y1="268" x2="1012" y2="314" /><rect fill="#eef8ef" stroke="#6f9678" stroke-width="2" x="85" y="326" width="205" height="52" rx="10" ry="10" /><rect fill="#eef8ef" stroke="#6f9678" stroke-width="2" x="310" y="326" width="205" height="52" rx="10" ry="10" /><rect fill="#eef8ef" stroke="#6f9678" stroke-width="2" x="685" y="326" width="205" height="52" rx="10" ry="10" /><rect fill="#eef8ef" stroke="#6f9678" stroke-width="2" x="910" y="326" width="205" height="52" rx="10" ry="10" /><text fill="#1f2933" font-size="21" font-weight="700" font-family="Menlo, Consolas, monospace" x="187" y="352" text-anchor="middle" dominant-baseline="middle">[8, 3]</text><text fill="#1f2933" font-size="21" font-weight="700" font-family="Menlo, Consolas, monospace" x="412" y="352" text-anchor="middle" dominant-baseline="middle">[5, 1]</text><text fill="#1f2933" font-size="21" font-weight="700" font-family="Menlo, Consolas, monospace" x="787" y="352" text-anchor="middle" dominant-baseline="middle">[9, 2]</text><text fill="#1f2933" font-size="21" font-weight="700" font-family="Menlo, Consolas, monospace" x="1012" y="352" text-anchor="middle" dominant-baseline="middle">[7, 4]</text><path fill="none" stroke="#b7872f" stroke-width="3" stroke-dasharray="8 8" d="M140 405 C300 455 900 455 1060 405" /><text fill="#6a4817" font-size="21" font-weight="700" font-family="-apple-system, BlinkMacSystemFont, 'Segoe UI', sans-serif" x="600" y="438" text-anchor="middle" dominant-baseline="middle">拆到足够小后，开始回溯合并</text><rect fill="#fff1c7" stroke="#b7872f" stroke-width="2" x="95" y="482" width="250" height="54" rx="10" ry="10" /><rect fill="#fff1c7" stroke="#b7872f" stroke-width="2" x="355" y="482" width="250" height="54" rx="10" ry="10" /><rect fill="#fff1c7" stroke="#b7872f" stroke-width="2" x="615" y="482" width="250" height="54" rx="10" ry="10" /><rect fill="#fff1c7" stroke="#b7872f" stroke-width="2" x="875" y="482" width="250" height="54" rx="10" ry="10" /><text fill="#1f2933" font-size="22" font-weight="700" font-family="Menlo, Consolas, monospace" x="220" y="509" text-anchor="middle" dominant-baseline="middle">[3, 8]</text><text fill="#1f2933" font-size="22" font-weight="700" font-family="Menlo, Consolas, monospace" x="480" y="509" text-anchor="middle" dominant-baseline="middle">[1, 5]</text><text fill="#1f2933" font-size="22" font-weight="700" font-family="Menlo, Consolas, monospace" x="740" y="509" text-anchor="middle" dominant-baseline="middle">[2, 9]</text><text fill="#1f2933" font-size="22" font-weight="700" font-family="Menlo, Consolas, monospace" x="1000" y="509" text-anchor="middle" dominant-baseline="middle">[4, 7]</text><line stroke="#3f4f5f" stroke-width="2.5" marker-end="url(#arrow)" x1="350" y1="545" x2="420" y2="590" /><line stroke="#3f4f5f" stroke-width="2.5" marker-end="url(#arrow)" x1="850" y1="545" x2="780" y2="590" /><rect fill="#d8f0df" stroke="#598765" stroke-width="2" x="265" y="604" width="310" height="56" rx="10" ry="10" /><rect fill="#d8f0df" stroke="#598765" stroke-width="2" x="625" y="604" width="310" height="56" rx="10" ry="10" /><text fill="#1f2933" font-size="22" font-weight="700" font-family="Menlo, Consolas, monospace" x="420" y="632" text-anchor="middle" dominant-baseline="middle">[1, 3, 5, 8]</text><text fill="#1f2933" font-size="22" font-weight="700" font-family="Menlo, Consolas, monospace" x="780" y="632" text-anchor="middle" dominant-baseline="middle">[2, 4, 7, 9]</text><line stroke="#3f4f5f" stroke-width="2.5" marker-end="url(#arrow)" x1="575" y1="664" x2="575" y2="697" /><line stroke="#3f4f5f" stroke-width="2.5" marker-end="url(#arrow)" x1="625" y1="664" x2="625" y2="697" /><rect fill="#fbfaf5" stroke="#c5bda8" stroke-width="2" x="330" y="696" width="540" height="50" rx="10" ry="10" /><text fill="#1f2933" font-size="22" font-weight="700" font-family="Menlo, Consolas, monospace" x="600" y="721" text-anchor="middle" dominant-baseline="middle">[1, 2, 3, 4, 5, 7, 8, 9]</text></svg>