<?xml version='1.0' encoding='utf-8'?>
<svg xmlns="http://www.w3.org/2000/svg" xmlns:xlink="http://www.w3.org/1999/xlink" width="1200px" height="720px" viewBox="0 0 1200 720" version="1.1"><rect x="0" y="0" width="1200" height="720" fill="rgb(245, 244, 237)" /><defs><marker id="arrow" markerWidth="10" markerHeight="10" refX="9" refY="5" orient="auto"><path d="M0 0 L10 5 L0 10 Z" fill="#3f4f5f" /></marker></defs><text fill="#1f2933" font-size="30" font-weight="700" font-family="-apple-system, BlinkMacSystemFont, 'Segoe UI', sans-serif" x="600" y="42" text-anchor="middle" dominant-baseline="middle">堆排序：最大值不断进入有序区</text><rect fill="#fbfaf5" stroke="#c5bda8" stroke-width="2" x="65" y="88" width="470" height="550" rx="14" ry="14" /><text fill="#43505f" font-size="23" font-weight="700" font-family="-apple-system, BlinkMacSystemFont, 'Segoe UI', sans-serif" x="300" y="126" text-anchor="middle" dominant-baseline="middle">1. 建成大根堆</text><line stroke="#718096" stroke-width="3" x1="300" y1="190" x2="210" y2="270" /><line stroke="#718096" stroke-width="3" x1="300" y1="190" x2="390" y2="270" /><line stroke="#718096" stroke-width="3" x1="210" y1="300" x2="150" y2="385" /><line stroke="#718096" stroke-width="3" x1="210" y1="300" x2="270" y2="385" /><line stroke="#718096" stroke-width="3" x1="390" y1="300" x2="330" y2="385" /><line stroke="#718096" stroke-width="3" x1="390" y1="300" x2="450" y2="385" /><circle fill="#fff1c7" stroke="#b7872f" stroke-width="3" cx="300" cy="175" r="34" /><circle fill="#e8f3ff" stroke="#6c82aa" stroke-width="3" cx="210" cy="285" r="32" /><circle fill="#e8f3ff" stroke="#6c82aa" stroke-width="3" cx="390" cy="285" r="32" /><circle fill="#eef8ef" stroke="#6f9678" stroke-width="3" cx="150" cy="405" r="30" /><circle fill="#eef8ef" stroke="#6f9678" stroke-width="3" cx="270" cy="405" r="30" /><circle fill="#eef8ef" stroke="#6f9678" stroke-width="3" cx="330" cy="405" r="30" /><circle fill="#eef8ef" stroke="#6f9678" stroke-width="3" cx="450" cy="405" r="30" /><text fill="#1f2933" font-size="26" font-weight="800" font-family="Menlo, Consolas, monospace" x="300" y="175" text-anchor="middle" dominant-baseline="middle">9</text><text fill="#1f2933" font-size="24" font-weight="800" font-family="Menlo, Consolas, monospace" x="210" y="285" text-anchor="middle" dominant-baseline="middle">8</text><text fill="#1f2933" font-size="24" font-weight="800" font-family="Menlo, Consolas, monospace" x="390" y="285" text-anchor="middle" dominant-baseline="middle">7</text><text fill="#1f2933" font-size="22" font-weight="800" font-family="Menlo, Consolas, monospace" x="150" y="405" text-anchor="middle" dominant-baseline="middle">4</text><text fill="#1f2933" font-size="22" font-weight="800" font-family="Menlo, Consolas, monospace" x="270" y="405" text-anchor="middle" dominant-baseline="middle">3</text><text fill="#1f2933" font-size="22" font-weight="800" font-family="Menlo, Consolas, monospace" x="330" y="405" text-anchor="middle" dominant-baseline="middle">2</text><text fill="#1f2933" font-size="22" font-weight="800" font-family="Menlo, Consolas, monospace" x="450" y="405" text-anchor="middle" dominant-baseline="middle">5</text><rect fill="#f6f8fb" stroke="#aeb8c4" stroke-width="2" x="110" y="508" width="380" height="54" rx="10" ry="10" /><text fill="#1f2933" font-size="19" font-weight="700" font-family="Menlo, Consolas, monospace" x="300" y="535" text-anchor="middle" dominant-baseline="middle">数组视角：[9, 8, 7, 4, 3, 2, 5, 1]</text><line stroke="#3f4f5f" stroke-width="3" marker-end="url(#arrow)" x1="545" y1="360" x2="628" y2="360" /><rect fill="#fbfaf5" stroke="#c5bda8" stroke-width="2" x="640" y="88" width="495" height="550" rx="14" ry="14" /><text fill="#43505f" font-size="23" font-weight="700" font-family="-apple-system, BlinkMacSystemFont, 'Segoe UI', sans-serif" x="887" y="126" text-anchor="middle" dominant-baseline="middle">2. 堆顶换到末尾，缩小堆</text><rect fill="#e8f3ff" stroke="#6c82aa" stroke-width="2" x="690" y="165" width="395" height="62" rx="10" ry="10" /><text fill="#1f2933" font-size="21" font-weight="700" font-family="Menlo, Consolas, monospace" x="887" y="196" text-anchor="middle" dominant-baseline="middle">[9, 8, 7, 4, 3, 2, 5, 1]</text><line stroke="#3f4f5f" stroke-width="3" marker-end="url(#arrow)" x1="887" y1="236" x2="887" y2="281" /><rect fill="#fff1c7" stroke="#b7872f" stroke-width="2" x="690" y="295" width="310" height="62" rx="10" ry="10" /><rect fill="#d8f0df" stroke="#598765" stroke-width="2" x="1010" y="295" width="75" height="62" rx="10" ry="10" /><text fill="#1f2933" font-size="20" font-weight="700" font-family="Menlo, Consolas, monospace" x="845" y="326" text-anchor="middle" dominant-baseline="middle">[1, 8, 7, 4, 3, 2, 5]</text><text fill="#244c2e" font-size="23" font-weight="800" font-family="Menlo, Consolas, monospace" x="1047" y="326" text-anchor="middle" dominant-baseline="middle">9</text><text fill="#6a4817" font-size="20" font-weight="700" font-family="-apple-system, BlinkMacSystemFont, 'Segoe UI', sans-serif" x="887" y="388" text-anchor="middle" dominant-baseline="middle">9 已经进入有序区；左侧重新下沉调整</text><line stroke="#3f4f5f" stroke-width="3" marker-end="url(#arrow)" x1="887" y1="414" x2="887" y2="458" /><rect fill="#e8f3ff" stroke="#6c82aa" stroke-width="2" x="690" y="472" width="310" height="62" rx="10" ry="10" /><rect fill="#d8f0df" stroke="#598765" stroke-width="2" x="1010" y="472" width="75" height="62" rx="10" ry="10" /><text fill="#1f2933" font-size="20" font-weight="700" font-family="Menlo, Consolas, monospace" x="845" y="503" text-anchor="middle" dominant-baseline="middle">[8, 4, 7, 1, 3, 2, 5]</text><text fill="#244c2e" font-size="23" font-weight="800" font-family="Menlo, Consolas, monospace" x="1047" y="503" text-anchor="middle" dominant-baseline="middle">9</text><text fill="#43505f" font-size="22" font-weight="700" font-family="-apple-system, BlinkMacSystemFont, 'Segoe UI', sans-serif" x="887" y="580" text-anchor="middle" dominant-baseline="middle">重复：堆区越来越小<tspan x="887" dy="28.6">有序区从右向左增长</tspan></text><rect fill="#fbfaf5" stroke="#c5bda8" stroke-width="2" x="315" y="656" width="570" height="50" rx="12" ry="12" /><text fill="#1f2933" font-size="22" font-weight="700" font-family="Menlo, Consolas, monospace" x="600" y="681" text-anchor="middle" dominant-baseline="middle">最终升序：[1, 2, 3, 4, 5, 7, 8, 9]</text></svg>