<svg xmlns="http://www.w3.org/2000/svg" viewBox="0 0 800 640" width="100%" height="100%">
  <defs>
    <marker id="arrowRight" markerWidth="10" markerHeight="10" refX="9" refY="5" orient="auto-start-reverse">
      <path d="M 0 0 L 10 5 L 0 10 z" fill="#757575" />
    </marker>
    <marker id="arrowLeft" markerWidth="10" markerHeight="10" refX="1" refY="5" orient="auto-start-reverse">
      <path d="M 10 0 L 0 5 L 10 10 z" fill="#757575" />
    </marker>
  </defs>

  <rect width="800" height="640" fill="#ffffff" />

  <line x1="150" y1="80" x2="150" y2="620" stroke="#e0e0e0" stroke-width="2" stroke-dasharray="6,6" />
  <line x1="400" y1="80" x2="400" y2="620" stroke="#e0e0e0" stroke-width="2" stroke-dasharray="6,6" />
  <line x1="650" y1="80" x2="650" y2="620" stroke="#e0e0e0" stroke-width="2" stroke-dasharray="6,6" />

  <rect x="50" y="20" width="200" height="60" rx="10" fill="#e8f5e9" stroke="#81c784" stroke-width="1.5" />
  <text x="150" y="42" text-anchor="middle" font-family="sans-serif" font-weight="bold" font-size="16" fill="#1b5e20">节点 A</text>
  <text x="150" y="64" text-anchor="middle" font-family="sans-serif" font-size="14" fill="#2e7d32">1.2.3.4:50001</text>

  <rect x="300" y="20" width="200" height="60" rx="10" fill="#fbe9e7" stroke="#e57373" stroke-width="1.5" />
  <text x="400" y="42" text-anchor="middle" font-family="sans-serif" font-weight="bold" font-size="16" fill="#bf360c">信令服务器</text>
  <text x="400" y="64" text-anchor="middle" font-family="sans-serif" font-size="14" fill="#d84315">9.9.9.9:3478</text>

  <rect x="550" y="20" width="200" height="60" rx="10" fill="#e8f5e9" stroke="#81c784" stroke-width="1.5" />
  <text x="650" y="42" text-anchor="middle" font-family="sans-serif" font-weight="bold" font-size="16" fill="#1b5e20">节点 B</text>
  <text x="650" y="64" text-anchor="middle" font-family="sans-serif" font-size="14" fill="#2e7d32">5.6.7.8:50002</text>

  <line x1="150" y1="130" x2="388" y2="130" stroke="#757575" stroke-width="1.5" marker-end="url(#arrowRight)" />
  <text x="160" y="120" font-family="sans-serif" font-size="14" fill="#616161">① 注册 + STUN 绑定请求</text>

  <rect x="310" y="150" width="180" height="32" rx="5" fill="#fbe9e7" stroke="#e57373" stroke-width="1" />
  <text x="400" y="171" text-anchor="middle" font-family="sans-serif" font-size="13" fill="#bf360c">记录 A → 1.2.3.4:50001</text>

  <line x1="650" y1="210" x2="412" y2="210" stroke="#757575" stroke-width="1.5" marker-end="url(#arrowLeft)" />
  <text x="640" y="200" text-anchor="end" font-family="sans-serif" font-size="14" fill="#616161">② 注册 + STUN 绑定请求</text>

  <rect x="310" y="230" width="180" height="32" rx="5" fill="#fbe9e7" stroke="#e57373" stroke-width="1" />
  <text x="400" y="251" text-anchor="middle" font-family="sans-serif" font-size="13" fill="#bf360c">记录 B → 5.6.7.8:50002</text>

  <line x1="400" y1="300" x2="162" y2="300" stroke="#757575" stroke-width="1.5" marker-end="url(#arrowLeft)" />
  <text x="390" y="290" text-anchor="end" font-family="sans-serif" font-size="14" fill="#616161">③ "对端是 5.6.7.8:50002 — 开始！"</text>

  <line x1="400" y1="350" x2="638" y2="350" stroke="#757575" stroke-width="1.5" marker-end="url(#arrowRight)" />
  <text x="410" y="340" font-family="sans-serif" font-size="14" fill="#616161">④ "对端是 1.2.3.4:50001 — 开始！"</text>

  <rect x="50" y="400" width="700" height="70" rx="10" fill="#fafafa" stroke="#eeeeee" stroke-width="1.5" />
  <text x="400" y="430" text-anchor="middle" font-family="sans-serif" font-size="14" fill="#424242">两个节点现在都知道了彼此的公网（反射）地址。</text>
  <text x="400" y="455" text-anchor="middle" font-family="sans-serif" font-size="14" fill="#424242">它们几乎同时收到信号 —— 竞赛开始。</text>

  <line x1="150" y1="510" x2="638" y2="510" stroke="#757575" stroke-width="1.5" marker-end="url(#arrowRight)" />
  <text x="400" y="500" text-anchor="middle" font-family="sans-serif" font-size="14" fill="#616161">⑤ 同时发送 UDP 数据包 —— 在双方 NAT 上打洞</text>

  <line x1="650" y1="535" x2="162" y2="535" stroke="#757575" stroke-width="1.5" marker-end="url(#arrowLeft)" />

  <rect x="250" y="575" width="300" height="40" rx="20" fill="#e8f5e9" stroke="#81c784" stroke-width="1.5" />
  <text x="400" y="601" text-anchor="middle" font-family="sans-serif" font-weight="bold" font-size="16" fill="#1b5e20">⑥ 建立直接 P2P 连接</text>

</svg>
