<?xml version='1.0' encoding='utf-8'?>
<svg xmlns="http://www.w3.org/2000/svg" xmlns:xlink="http://www.w3.org/1999/xlink" width="1600px" height="980px" viewBox="0 0 1600 980" version="1.1"><title>Commit 9ffe8b0 recv analysis</title><desc>Three-panel diagram showing the pre-commit gap, the recv chain added by commit 9ffe8b0, and the structural risks that remain.</desc><rect x="0" y="0" width="1600" height="980" fill="rgb(245, 244, 237)" /><defs><marker id="arrow" markerWidth="8" markerHeight="8" refX="7" refY="4" orient="auto"><path d="M0 0 L8 4 L0 8 Z" fill="#5B6470" /></marker></defs><text fill="#2A2118" font-family="Segoe UI, Microsoft YaHei, sans-serif" font-size="30" font-weight="700" letter-spacing="0.3" x="60" y="58">Commit 9ffe8b0: IOCP recv chain is finally wired in</text><text fill="#65564A" font-family="Segoe UI, Microsoft YaHei, sans-serif" font-size="16" x="60" y="92">鏍稿績鍙樺寲锛欰cceptWorker 鍦?AcceptEx 瀹屾垚鍚庤ˉ鎶?WSARecv锛屽苟璁?ERecv 绗竴娆℃嫢鏈夋槑纭鐞嗗叆鍙ｃ€?/text><rect fill="#EFE7DA" stroke="#D0C1AD" stroke-width="1.5" x="60" y="112" width="330" height="36" rx="18" ry="18" /><text fill="#4C4137" font-family="Segoe UI, Microsoft YaHei, sans-serif" font-size="13" font-weight="600" x="225" y="130" text-anchor="middle" dominant-baseline="middle">浠撳簱: remote_ctl1 / latest = 9ffe8b0</text><rect fill="#E6F3EC" stroke="#9BC6AB" stroke-width="1.5" x="410" y="112" width="270" height="36" rx="18" ry="18" /><text fill="#315B43" font-family="Segoe UI, Microsoft YaHei, sans-serif" font-size="13" font-weight="600" x="545" y="130" text-anchor="middle" dominant-baseline="middle">婧愮爜閲嶇偣: EdoyunServer.cpp / EdoyunServer.h</text><rect fill="#FFF0D9" stroke="#DDB46D" stroke-width="1.5" x="700" y="112" width="210" height="36" rx="18" ry="18" /><text fill="#6F4B13" font-family="Consolas, Segoe UI, monospace" font-size="13" font-weight="700" x="805" y="130" text-anchor="middle" dominant-baseline="middle">diff: +172 / -98</text><rect fill="#FFF8EA" stroke="#D4B06A" stroke-width="2" shape-rendering="geometricPrecision" x="40" y="160" width="460" height="760" rx="26" ry="26" /><rect fill="#EEF8F2" stroke="#66A07A" stroke-width="2" shape-rendering="geometricPrecision" x="520" y="160" width="560" height="760" rx="26" ry="26" /><rect fill="#FFF2F2" stroke="#C76A72" stroke-width="2" shape-rendering="geometricPrecision" x="1100" y="160" width="460" height="760" rx="26" ry="26" /><text fill="#6D4C05" font-family="Segoe UI, Microsoft YaHei, sans-serif" font-size="24" font-weight="700" x="70" y="194">鎻愪氦鍓?47efc80</text><text fill="#7A6851" font-family="Segoe UI, Microsoft YaHei, sans-serif" font-size="14" x="70" y="224">Accept 瀹屾垚鍚庯紝閾捐矾鍋滃湪 AcceptWorker</text><text fill="#256B48" font-family="Segoe UI, Microsoft YaHei, sans-serif" font-size="24" font-weight="700" x="550" y="194">9ffe8b0 鍋氫簡浠€涔?/text><text fill="#4E6A59" font-family="Segoe UI, Microsoft YaHei, sans-serif" font-size="14" x="550" y="224">鎶?recv 璧风偣鎺ュ埌浜?Accept 涔嬪悗</text><text fill="#A03941" font-family="Segoe UI, Microsoft YaHei, sans-serif" font-size="24" font-weight="700" x="1130" y="194">涓轰粈涔堣繕涓嶇畻绋冲畾</text><text fill="#80636A" font-family="Segoe UI, Microsoft YaHei, sans-serif" font-size="14" x="1130" y="224">杩欐槸鏈哄埗鎺ㄨ繘锛屼笉鏄?recv 闂幆瀹屾垚</text><rect fill="#FFFDF8" stroke="#D8B36D" stroke-width="2" x="100" y="280" width="340" height="74" rx="16" ry="16" /><text fill="#433422" font-family="Segoe UI, Microsoft YaHei, sans-serif" font-size="16" font-weight="600" x="270" y="302" text-anchor="middle" dominant-baseline="hanging">AcceptEx completion<tspan x="270" dy="20.8">lpOverlapped = accept</tspan></text><rect fill="#FFFDF8" stroke="#D8B36D" stroke-width="2" x="100" y="395" width="340" height="92" rx="16" ry="16" /><text fill="#433422" font-family="Segoe UI, Microsoft YaHei, sans-serif" font-size="16" font-weight="600" x="270" y="417" text-anchor="middle" dominant-baseline="hanging">AcceptWorker()<tspan x="270" dy="20.48">GetAcceptExSockaddrs</tspan><tspan x="270" dy="20.48">鎷垮埌鏈湴 / 杩滅鍦板潃</tspan></text><rect fill="#FFFDF8" stroke="#D8B36D" stroke-width="2" x="100" y="530" width="340" height="74" rx="16" ry="16" /><text fill="#433422" font-family="Segoe UI, Microsoft YaHei, sans-serif" font-size="16" font-weight="600" x="270" y="552" text-anchor="middle" dominant-baseline="hanging">NewAccept()<tspan x="270" dy="20.8">缁х画鎸備笅涓€涓?AcceptEx</tspan></text><rect fill="#FFF3E0" stroke="#D5922A" stroke-width="2" stroke-dasharray="10 8" x="90" y="665" width="360" height="155" rx="18" ry="18" /><text fill="#6A4311" font-family="Segoe UI, Microsoft YaHei, sans-serif" font-size="18" font-weight="700" x="270" y="689" text-anchor="middle" dominant-baseline="hanging">缂哄彛<tspan x="270" dy="24.3">娌℃湁琛ユ姇 WSARecv</tspan><tspan x="270" dy="24.3">ERecv 鍒嗘敮鎷夸笉鍒扮湡瀹炲畬鎴愪簨浠?/tspan></text><text fill="#7A6851" font-family="Segoe UI, Microsoft YaHei, sans-serif" font-size="14" x="270" y="793" text-anchor="middle" dominant-baseline="middle">8.1 鐨勯鏋跺彧鑳?accept锛?tspan x="270" dy="17.5">杩樻病鏈夌湡姝ｈ繘鍏?recv 鐢熷懡鍛ㄦ湡</tspan></text><line stroke="#5B6470" stroke-width="3" marker-end="url(#arrow)" x1="270" y1="354" x2="270" y2="395" /><line stroke="#5B6470" stroke-width="3" marker-end="url(#arrow)" x1="270" y1="487" x2="270" y2="530" /><line stroke="#B78535" stroke-width="2.5" stroke-dasharray="8 8" marker-end="url(#arrow)" x1="270" y1="487" x2="270" y2="665" /><rect fill="#FBFFFC" stroke="#7DB792" stroke-width="1.8" x="550" y="260" width="230" height="76" rx="14" ry="14" /><text fill="#284F3A" font-family="Segoe UI, Microsoft YaHei, sans-serif" font-size="13" font-weight="600" x="565" y="278" dominant-baseline="hanging">EdoyunServer.cpp<tspan x="565" dy="15.86">AcceptWorker 鍐呰ˉ鎶?WSARecv</tspan><tspan x="565" dy="15.86">StartService / threadIocp 鎸埌 .cpp</tspan></text><rect fill="#FBFFFC" stroke="#7DB792" stroke-width="1.8" x="820" y="260" width="230" height="76" rx="14" ry="14" /><text fill="#284F3A" font-family="Segoe UI, Microsoft YaHei, sans-serif" font-size="13" font-weight="600" x="835" y="278" dominant-baseline="hanging">EdoyunServer.h<tspan x="835" dy="15.86">EdoyunClient 澧炲姞 m_recv / m_send</tspan><tspan x="835" dy="15.86">鏂板 flags / m_used / WSABUF</tspan></text><rect fill="#DDEFE4" stroke="#A4C7B0" stroke-width="1.2" x="590" y="346" width="420" height="28" rx="14" ry="14" /><text fill="#355745" font-family="Segoe UI, Microsoft YaHei, sans-serif" font-size="12.5" font-weight="600" x="800" y="360" text-anchor="middle" dominant-baseline="middle">鏂板鐘舵€佹壙杞? m_client / m_wsabuffer / m_recv / m_send / m_flags / m_used</text><rect fill="#FFFFFF" stroke="#4F9A73" stroke-width="2" x="570" y="390" width="230" height="88" rx="16" ry="16" /><text fill="#234434" font-family="Segoe UI, Microsoft YaHei, sans-serif" font-size="16" font-weight="600" x="685" y="412" text-anchor="middle" dominant-baseline="hanging">AcceptWorker()<tspan x="685" dy="20.48">鍏堣В鏋愬湴鍧€</tspan><tspan x="685" dy="20.48">鍐嶄负 client 鍙戣捣 recv</tspan></text><rect fill="#FFFFFF" stroke="#4F9A73" stroke-width="2" x="820" y="390" width="220" height="88" rx="16" ry="16" /><text fill="#234434" font-family="Segoe UI, Microsoft YaHei, sans-serif" font-size="16" font-weight="600" x="930" y="412" text-anchor="middle" dominant-baseline="hanging">NewAccept()<tspan x="930" dy="20.48">涓嬩竴涓?accept</tspan><tspan x="930" dy="20.48">缁х画鎸傝捣</tspan></text><rect fill="#FFFFFF" stroke="#4F9A73" stroke-width="2" x="650" y="500" width="310" height="104" rx="16" ry="16" /><text fill="#234434" font-family="Consolas, Segoe UI, monospace" font-size="15" font-weight="600" x="805" y="519" text-anchor="middle" dominant-baseline="hanging">WSARecv(<tspan x="805" dy="17.4">sock = client</tspan><tspan x="805" dy="17.4">lpBuffers = RecvWSABuffer()</tspan><tspan x="805" dy="17.4">lpOverlapped = *m_client</tspan><tspan x="805" dy="17.4">)</tspan></text><rect fill="#FFFFFF" stroke="#4F9A73" stroke-width="2" x="650" y="645" width="310" height="80" rx="16" ry="16" /><text fill="#234434" font-family="Segoe UI, Microsoft YaHei, sans-serif" font-size="16" font-weight="600" x="805" y="668" text-anchor="middle" dominant-baseline="hanging">threadIocp()<tspan x="805" dy="20.48">GQCS -&gt; switch(m_operator)</tspan></text><rect fill="#FFFFFF" stroke="#4F9A73" stroke-width="2" x="650" y="755" width="310" height="80" rx="16" ry="16" /><text fill="#234434" font-family="Segoe UI, Microsoft YaHei, sans-serif" font-size="16" font-weight="600" x="805" y="778" text-anchor="middle" dominant-baseline="hanging">ERecv -&gt; RecvWorker()<tspan x="805" dy="20.48">recv 瀹屾垚浜嬩欢绗竴娆℃湁鍏ュ彛</tspan></text><rect fill="#E8F5EC" stroke="#4F9A73" stroke-width="2" x="650" y="850" width="310" height="56" rx="16" ry="16" /><text fill="#234434" font-family="Segoe UI, Microsoft YaHei, sans-serif" font-size="15" font-weight="700" x="805" y="869" text-anchor="middle" dominant-baseline="hanging">EdoyunClient::Recv()<tspan x="805" dy="18.3">褰撳墠瀹炵幇浠嶅洖钀藉埌鍚屾 recv()</tspan></text><line stroke="#5B6470" stroke-width="3" marker-end="url(#arrow)" x1="800" y1="434" x2="820" y2="434" /><path fill="none" stroke="#5B6470" stroke-width="3" marker-end="url(#arrow)" d="M685 478 L685 489 L805 489 L805 500" /><line stroke="#5B6470" stroke-width="3" marker-end="url(#arrow)" x1="805" y1="604" x2="805" y2="645" /><line stroke="#5B6470" stroke-width="3" marker-end="url(#arrow)" x1="805" y1="725" x2="805" y2="755" /><line stroke="#5B6470" stroke-width="3" marker-end="url(#arrow)" x1="805" y1="835" x2="805" y2="850" /><rect fill="#FFF9F9" stroke="#D67272" stroke-width="2" x="1140" y="270" width="380" height="104" rx="16" ry="16" /><text fill="#5E2B2E" font-family="Segoe UI, Microsoft YaHei, sans-serif" font-size="15" font-weight="600" x="1160" y="290" dominant-baseline="hanging">1. lpOverlapped 鐢ㄩ敊瀵硅薄<tspan x="1160" dy="18.3">*m_client 浠嶄細杞垚 accept overlapped</tspan><tspan x="1160" dy="18.3">瀹屾垚浜嬩欢鍙兘鍐嶆鎸?EAccept 璺敱</tspan></text><rect fill="#FFF9F9" stroke="#D67272" stroke-width="2" x="1140" y="395" width="380" height="94" rx="16" ry="16" /><text fill="#5E2B2E" font-family="Segoe UI, Microsoft YaHei, sans-serif" font-size="15" font-weight="600" x="1160" y="415" dominant-baseline="hanging">2. WSABUF 鏈鍒濆鍖?tspan x="1160" dy="18.3">m_wsabuffer.buf / len 娌℃湁鏄庣‘璧嬪€?/tspan><tspan x="1160" dy="18.3">WSARecv 璇诲啓鑼冨洿涓嶅彲闈?/tspan></text><rect fill="#FFF9F9" stroke="#D67272" stroke-width="2" x="1140" y="510" width="380" height="104" rx="16" ry="16" /><text fill="#5E2B2E" font-family="Segoe UI, Microsoft YaHei, sans-serif" font-size="15" font-weight="600" x="1160" y="530" dominant-baseline="hanging">3. accept 鍚庣疆姝ラ缂哄け<tspan x="1160" dy="18.3">娌＄湅鍒?SO_UPDATE_ACCEPT_CONTEXT</tspan><tspan x="1160" dy="18.3">涔熸病鐪嬪埌 client socket 閲嶆柊鍏宠仈 IOCP</tspan></text><rect fill="#FFF9F9" stroke="#D67272" stroke-width="2" x="1140" y="635" width="380" height="104" rx="16" ry="16" /><text fill="#5E2B2E" font-family="Segoe UI, Microsoft YaHei, sans-serif" font-size="15" font-weight="600" x="1160" y="655" dominant-baseline="hanging">4. RecvWorker 浠嶅悓姝?recv()<tspan x="1160" dy="18.3">娌℃湁鐩存帴娑堣垂 IOCP 杩斿洖鐨?transferred bytes</tspan><tspan x="1160" dy="18.3">鍙兘闃诲绾跨▼骞舵ā绯婂紓姝ヨ涔?/tspan></text><rect fill="#FCECEE" stroke="#B8424B" stroke-width="2.4" x="1140" y="775" width="380" height="120" rx="18" ry="18" /><text fill="#782B31" font-family="Segoe UI, Microsoft YaHei, sans-serif" font-size="17" font-weight="700" x="1330" y="798" text-anchor="middle" dominant-baseline="hanging">缁撹<tspan x="1330" dy="22.1">9ffe8b0 璁?recv 閾捐矾绗竴娆℃帴涓婄嚎</tspan><tspan x="1330" dy="22.1">浣嗙湡姝ｇǔ瀹氳繕瑕佹妸涓婇潰鍥涗釜缂哄彛琛ラ綈</tspan></text><path fill="none" stroke="#C86E73" stroke-width="2.5" stroke-dasharray="8 8" marker-end="url(#arrow)" d="M960 552 L1080 552 L1080 322 L1140 322" /><path fill="none" stroke="#C86E73" stroke-width="2.5" stroke-dasharray="8 8" marker-end="url(#arrow)" d="M960 878 L1080 878 L1080 687 L1140 687" /><text fill="#6A6257" font-family="Segoe UI, Microsoft YaHei, sans-serif" font-size="12.5" x="60" y="954">楠岃瘉鍩虹锛氱洿鎺ラ槄璇?commit 9ffe8b0a62e1b7cdc20efb1871c1933451acf3a3 鐨?diff锛涘浘涓彸鏍忎负浠ｇ爜绾ч闄╋紝涓嶆槸杩愯鏃堕獙璇佺粨鏋溿€?/text></svg>